<?xml version="1.0" encoding="UTF-8"?>
<svg xmlns="http://www.w3.org/2000/svg" xmlns:xlink="http://www.w3.org/1999/xlink"
     width="512" height="512" viewBox="0 0 60 60"
     version="1.1"><!-- Generator: Sketch 51.3 (57544) - http://www.bohemiancoding.com/sketch -->
    <title>046 - 3D puzzle</title>
    <desc>Created with Sketch.</desc>
    <defs/>
    <g id="Page-1" stroke="none" stroke-width="1" fill="none" fill-rule="evenodd">
        <g id="046---3D-puzzle" fill-rule="nonzero">
            <path d="M11,1 L1,11 L1,59 L49,59 L59,49 L59,1 L11,1 Z M24.66,49.88 C24.67,49.9 24.67,49.92 24.68,49.93 C24.6490751,49.8704279 24.6085303,49.8163681 24.56,49.77 C24.5960164,49.8041348 24.6294421,49.840903 24.66,49.88 Z"
                  id="Shape" fill="#4527A0"/>
            <path d="M11,1 L1,11 L1,58 L46.33,58 L56.33,48 L56.33,1 L11,1 Z M19.52,48.4 C19.4992411,48.4257731 19.4757731,48.4492411 19.45,48.47 C19.4755286,48.4520398 19.4961555,48.4279752 19.51,48.4 C19.5474725,48.3544 19.5875387,48.3109949 19.63,48.27 C19.5880987,48.3086179 19.5511498,48.3522847 19.52,48.4 Z"
                  id="Shape" fill="#673AB7"/>
            <path d="M15.11,47.961 C15.4748259,49.4629603 16.6748686,50.6187382 18.1894737,50.9268842 C19.7040788,51.2350302 21.2603194,50.6400174 22.183,49.4 C22.3513146,49.1573155 22.624794,49.0088871 22.92,49 L23,49 C24.1045695,49 25,49.8954305 25,51 L25,59 L1,59 L1,35 L9,35 C10.1045695,35 11,34.1045695 11,33 L11,32.92 C10.9924292,32.6259273 10.8458782,32.3528602 10.605,32.184 C9.22180454,31.1543392 8.65414771,29.3541589 9.19650308,27.7173077 C9.73885846,26.0804565 11.269136,24.9754072 12.9935,24.9754072 C14.717864,24.9754072 16.2481415,26.0804565 16.7904969,27.7173077 C17.3328523,29.3541589 16.7651955,31.1543392 15.382,32.184 C15.1459091,32.3464357 15.0034531,32.6134475 15,32.9 L15,33 C15,34.1045695 15.8954305,35 17,35 L25,35 L25,43 C25,44.1045695 24.1045695,45 23,45 L22.893,45 C22.6104868,44.9925363 22.3485271,44.8505951 22.188,44.618 C21.4440769,43.6012348 20.2598543,43.0002084 19,43 C17.7696414,43.0005458 16.6077384,43.5663008 15.8485533,44.5345057 C15.0893682,45.5027106 14.8170719,46.7660206 15.11,47.961 Z"
                  id="Shape" fill="#FFDC00"/>
            <rect id="Rectangle-path" fill="#0377BC" x="46" y="35" width="3" height="24"/>
            <path d="M46,34.9997908 L46,59 L25,59 L25,51 C25.0025009,50.6008791 24.8839551,50.2103753 24.66,49.88 C24.5902103,49.7724383 24.506105,49.6748761 24.41,49.59 C24.0395388,49.2101411 23.5305905,48.9971769 23,49 L22.92,49 C22.624318,49.0101444 22.3504519,49.1581801 22.18,49.4 C22.0352632,49.5960376 21.8710968,49.7769557 21.69,49.94 C20.6981369,50.8572391 19.309818,51.210903 18,50.88 C17.8220794,50.8384677 17.6480947,50.781588 17.48,50.71 C16.2931955,50.2285453 15.4109785,49.2048757 15.11,47.96 C14.8116041,46.764563 15.0818018,45.4983189 15.842166,44.5288056 C16.6025302,43.5592924 17.7678938,42.9951036 19,43 C20.0009141,42.9974043 20.9643318,43.3806224 21.69,44.07 C21.874428,44.2363643 22.0419133,44.4205981 22.19,44.62 C22.3491528,44.8513046 22.6093297,44.9925434 22.89,45 L23,45 C24.1045695,45 25,44.1045695 25,43 L25,35 L33,35 C33.2685435,34.9959574 33.5347349,35.0505607 33.78,35.16 C33.8334971,35.1749585 33.8841724,35.1986069 33.93,35.23 C33.9966195,35.2606721 34.060229,35.2974987 34.12,35.34 C34.2287234,35.4122703 34.3293086,35.4960913 34.42,35.59 C34.7931317,35.9641785 35.0018478,36.4715746 35,37 L35,37.11 C34.9925434,37.3906703 34.8513046,37.6508472 34.62,37.81 C33.6021643,38.554128 33.0003609,39.7391606 33,41 C33.0033819,42.6347254 33.9953876,44.1049489 35.51,44.72 C36.2904233,45.0242869 37.1450304,45.0835862 37.96,44.89 C39.4606138,44.5245648 40.6151831,43.3253326 40.923428,41.8119358 C41.2316728,40.298539 40.6381362,38.743257 39.4,37.82 C39.1581801,37.6495481 39.0101444,37.375682 39,37.08 L39,37 C38.9971769,36.4694095 39.2101411,35.9604612 39.59,35.59 C39.6748761,35.493895 39.7724383,35.4097897 39.88,35.34 C39.9330436,35.3008587 39.9900173,35.2673448 40.05,35.24 C40.1036711,35.2073834 40.1606581,35.180566 40.22,35.16 C40.4655846,35.051558 40.7315555,34.9969999 41,35 L46,34.9997908 Z"
                  id="Shape" fill="#02A9F4"/>
            <path d="M41,35 L39.4,37.82 C39.1581801,37.6495481 39.0101444,37.375682 39,37.08 L39,37 C38.9971769,36.4694095 39.2101411,35.9604612 39.59,35.59 C39.6748761,35.493895 39.7724383,35.4097897 39.88,35.34 C39.9330436,35.3008587 39.9900173,35.2673448 40.05,35.24 C40.1036711,35.2073834 40.1606581,35.180566 40.22,35.16 C40.4655846,35.051558 40.7315555,34.9969999 41,35 Z"
                  id="Shape" fill="#0377BC"/>
            <path d="M29.51,26.71 C29.0300212,26.9029461 28.5173064,27.0014145 28,27 C26.9990859,27.0025957 26.0356682,26.6193776 25.31,25.93 C25.3891363,25.8056849 25.4831664,25.6915055 25.59,25.59 C25.6748761,25.493895 25.7724383,25.4097897 25.88,25.34 C25.9330436,25.3008587 25.9900173,25.2673448 26.05,25.24 C26.104663,25.209268 26.161478,25.1825315 26.22,25.16 C26.4655846,25.051558 26.7315555,24.9969999 27,25 L27.11,25 C27.3906703,25.0074566 27.6508472,25.1486954 27.81,25.38 C28.2431501,25.9716441 28.8315095,26.4319489 29.51,26.71 Z"
                  id="Shape" fill="#955BA5"/>
            <rect id="Rectangle-path" fill="#6A1B9A" x="46" y="11" width="3" height="24"/>
            <path d="M46,11 L46,35 L41,35 C40.7315555,34.9969999 40.4655846,35.051558 40.22,35.16 C40.1606581,35.180566 40.1036711,35.2073834 40.05,35.24 C39.9900173,35.2673448 39.9330436,35.3008587 39.88,35.34 C39.7724383,35.4097897 39.6748761,35.493895 39.59,35.59 C39.2101411,35.9604612 38.9971769,36.4694095 39,37 L39,37.08 C39.0101444,37.375682 39.1581801,37.6495481 39.4,37.82 C40.6381362,38.743257 41.2316728,40.298539 40.923428,41.8119358 C40.6151831,43.3253326 39.4606138,44.5245648 37.96,44.89 C37.1450304,45.0835862 36.2904233,45.0242869 35.51,44.72 C33.9953876,44.1049489 33.0033819,42.6347254 33,41 C33.0003609,39.7391606 33.6021643,38.554128 34.62,37.81 C34.8513046,37.6508472 34.9925434,37.3906703 35,37.11 L35,37 C35.0018478,36.4715746 34.7931317,35.9641785 34.42,35.59 C34.3293086,35.4960913 34.2287234,35.4122703 34.12,35.34 C34.060229,35.2974987 33.9966195,35.2606721 33.93,35.23 C33.8841724,35.1986069 33.8334971,35.1749585 33.78,35.16 C33.5347349,35.0505607 33.2685435,34.9959574 33,35 L25,35 L25,27 C24.9982365,26.6209365 25.105874,26.2494133 25.31,25.93 C26.02,26.6 25.96,25 27,25 C27.53,25 29.04,26.9 29.51,26.71 C29.9827211,26.9038513 30.4890815,27.0024047 31,27 C32.6161915,27.0101407 34.07968,26.0466674 34.709201,24.5580838 C35.338722,23.0695002 35.0105631,21.3483404 33.8774847,20.1958166 C32.7444062,19.0432928 31.029079,18.6858972 29.53,19.29 L29.52,19.29 C28.844325,19.5632087 28.256388,20.0162661 27.82,20.6 C27.651175,20.8436445 27.3763173,20.9922162 27.08,21 L27,21 C26.3125538,20.9979373 25.674345,20.6429573 25.31,20.06 C25.1059405,19.7442597 24.9982236,19.3759376 25,19 L24.9999784,11 L46,11 Z"
                  id="Shape" fill="#9D27B0"/>
            <path d="M31,27 C29.7391606,26.9996391 28.554128,26.3978357 27.81,25.38 C27.6508472,25.1486954 27.3906703,25.0074566 27.11,25 L27,25 C26.6008791,24.9974991 26.2103753,25.1160449 25.88,25.34 C25.7724383,25.4097897 25.6748761,25.493895 25.59,25.59 C25.2101411,25.9604612 24.9971769,26.4694095 25,27 L25,35 L17,35 C16.6008791,35.0025009 16.2103753,34.8839551 15.88,34.66 C15.7764296,34.5850275 15.6794143,34.5013936 15.59,34.41 C15.2101411,34.0395388 14.9971769,33.5305905 15,33 L15,32.89 C15.0074566,32.6093297 15.1486954,32.3491528 15.38,32.19 C16.3978357,31.445872 16.9996391,30.2608394 17,29 C17.0094,27.1164951 15.703523,25.4816217 13.8645059,25.0745648 C12.0254889,24.6675079 10.1516556,25.5985689 9.36531266,27.3101015 C8.57896976,29.0216341 9.09319489,31.0498595 10.6,32.18 C10.8436445,32.348825 10.9922162,32.6236827 11,32.92 L11,33 C11.0028231,33.5305905 10.7898589,34.0395388 10.41,34.41 C10.3205857,34.5013936 10.2235704,34.5850275 10.12,34.66 C9.78962467,34.8839551 9.39912091,35.0025009 9,35 L1,35.0000388 L1,11 L25,11 L25,19 C25.0032948,20.1032019 25.8967981,20.9967052 27,21 L27.08,21 C27.3763173,20.9922162 27.651175,20.8436445 27.82,20.6 C28.9501405,19.0931949 30.9783659,18.5789698 32.6898985,19.3653127 C34.4014311,20.1516556 35.3324921,22.0254889 34.9254352,23.8645059 C34.5183783,25.703523 32.8835049,27.0094 31,27 Z"
                  id="Shape" fill="#E91E63"/>
            <polygon id="Shape" fill="#AD1457" points="35 1 25 11 1 11 11 1"/>
            <polygon id="Shape" fill="#6A1B9A" points="59 1 49 11 25 11 35 1"/>
            <polygon id="Shape" fill="#283593" points="59 25 59 49 49 59 49 35"/>
            <polygon id="Shape" fill="#3F51B5"
                     points="56.38 27.62 56.38 50 49 57.38 49 35"/>
            <path d="M25,60 L1,60 C0.44771525,60 6.76353751e-17,59.5522847 0,59 L0,35 C-6.76353751e-17,34.4477153 0.44771525,34 1,34 L9,34 C9.55228475,34 10,33.5522847 10,33 C8.26276454,31.7143206 7.5443639,29.4604511 8.21715333,27.4065979 C8.88994277,25.3527446 10.8026336,23.960753 12.9638564,23.9521081 C15.1250792,23.9434632 17.0488446,25.320109 17.7380431,27.3685143 C18.4272416,29.4169196 17.7268946,31.676464 16,32.976 L16,33 C16,33.5522847 16.4477153,34 17,34 L25,34 C25.5522847,34 26,34.4477153 26,35 L26,43 C26,44.6568542 24.6568542,46 23,46 L22.894,46 C22.2919819,45.995389 21.7290875,45.7009119 21.382,45.209 C20.528089,44.06487 18.9849683,43.6831194 17.6961078,44.297152 C16.4072472,44.9111846 15.7314914,46.3500414 16.082,47.734 C16.3383263,48.8041 17.1685599,49.6428133 18.236,49.91 C19.4133022,50.2118263 20.656387,49.7735086 21.384,48.8 C21.7395011,48.304076 22.3098586,48.0070148 22.92,48 C23.7276848,47.9844752 24.5079625,48.2929758 25.0866534,48.8566358 C25.6653444,49.4202958 25.9942682,50.1921863 26,51 L26,59 C26,59.5522847 25.5522847,60 25,60 Z M2,58 L24,58 L24,51 C24,50.4477153 23.5522847,50 23,50 C21.8406526,51.5506217 19.8903062,52.292559 17.9934771,51.9045469 C16.0966479,51.5165348 14.5943147,50.0683233 14.137,48.187 C13.7764803,46.6864884 14.12485,45.1035261 15.082,43.893 C16.0401064,42.6788688 17.5083888,41.9793937 19.0548825,42.0003585 C20.6013763,42.0213232 22.050158,42.7603429 22.975,44 L23,44 C23.5522847,44 24,43.5522847 24,43 L24,36 L17,36 C15.3431458,36 14,34.6568542 14,33 L14,32.9 C14.0056871,32.2987643 14.2995168,31.7367686 14.79,31.389 C15.5545538,30.8340184 16.0049657,29.944734 16,29 C15.999055,28.074912 15.5724954,27.2017109 14.8433906,26.6323297 C14.1142858,26.0629485 13.1637396,25.8607235 12.266,26.084 C11.196364,26.3414357 10.3583057,27.1717877 10.091,28.239 C9.78984047,29.4154697 10.2276542,30.6574551 11.2,31.385 C11.6961747,31.7402837 11.9933071,32.3107779 12,32.921 C12.0152541,33.7285133 11.7066335,34.508532 11.1430029,35.0870049 C10.5793723,35.6654778 9.80763697,35.9942644 9,36 L2,36 L2,58 Z"
                  id="Shape" fill="#000000"/>
            <path d="M49,60 L25,60 C24.4477153,60 24,59.5522847 24,59 L24,51 C24,50.4477153 23.5522847,50 23,50 C21.7143206,51.7372355 19.4604511,52.4556361 17.4065979,51.7828467 C15.3527446,51.1100572 13.960753,49.1973664 13.9521081,47.0361436 C13.9434632,44.8749208 15.320109,42.9511554 17.3685143,42.2619569 C19.4169196,41.5727584 21.676464,42.2731054 22.976,44 L23,44 C23.5522847,44 24,43.5522847 24,43 L24,35 C24,34.4477153 24.4477153,34 25,34 L33,34 C34.6568542,34 36,35.3431458 36,37 L36,37.106 C35.995389,37.7080181 35.7009119,38.2709125 35.209,38.618 C34.4616851,39.1695804 34.0147547,40.0384492 34.0006297,40.9671693 C33.9865047,41.8958893 34.406805,42.7779479 35.137,43.352 C35.8683622,43.9350222 36.8297995,44.1435801 37.737,43.916 C38.8066799,43.6582776 39.6449167,42.8281304 39.913,41.761 C40.2128457,40.5840188 39.7734336,39.3423739 38.8,38.616 C38.304076,38.2604989 38.0070148,37.6901414 38,37.08 C37.9844752,36.2723152 38.2929758,35.4920375 38.8566358,34.9133466 C39.4202958,34.3346556 40.1921863,34.0057318 41,34 L49,34 C49.5522847,34 50,34.4477153 50,35 L50,59 C50,59.5522847 49.5522847,60 49,60 Z M26,58 L48,58 L48,36 L41,36 C40.4477153,36 40,36.4477153 40,37 C41.5506217,38.1593474 42.292559,40.1096938 41.9045469,42.0065229 C41.5165348,43.9033521 40.0683233,45.4056853 38.187,45.863 C35.8827881,46.4334637 33.4957118,45.3013902 32.4794151,43.1561717 C31.4631185,41.0109532 32.0990708,38.4467207 34,37.025 L34,37 C34,36.4477153 33.5522847,36 33,36 L26,36 L26,43 C26,44.6568542 24.6568542,46 23,46 L22.9,46 C22.2987643,45.9943129 21.7367686,45.7004832 21.389,45.21 C20.8340184,44.4454462 19.944734,43.9950343 19,44 C18.074912,44.000945 17.2017109,44.4275046 16.6323297,45.1566094 C16.0629485,45.8857142 15.8607235,46.8362604 16.084,47.734 C16.3414357,48.803636 17.1717877,49.6416943 18.239,49.909 C19.4154697,50.2101595 20.6574551,49.7723458 21.385,48.8 C21.7402837,48.3038253 22.3107779,48.0066929 22.921,48 C23.7285133,47.9847459 24.508532,48.2933665 25.0870049,48.8569971 C25.6654778,49.4206277 25.9942644,50.192363 26,51 L26,58 Z"
                  id="Shape" fill="#000000"/>
            <path d="M37.007,46 C34.8553388,46.0112753 32.9394655,44.6401839 32.2559733,42.5999359 C31.5724811,40.559688 32.2757679,38.3111662 34,37.024 L34,37 C34,36.4477153 33.5522847,36 33,36 L25,36 C24.4477153,36 24,35.5522847 24,35 L24,27 C24,25.3431458 25.3431458,24 27,24 L27.107,24 C27.7081773,24.004965 28.2703476,24.2985139 28.618,24.789 C29.1690725,25.5370667 30.037905,25.9848306 30.9669196,25.9995457 C31.8959341,26.0142609 32.7785119,25.5942384 33.353,24.864 C33.9360222,24.1326378 34.1445801,23.1712005 33.917,22.264 C33.6598443,21.1934434 32.8290138,20.3545204 31.761,20.087 C30.5846459,19.7880382 29.3440531,20.2273572 28.618,21.2 C28.2623999,21.6963316 27.6915356,21.9934633 27.081,22 C26.2731437,22.0157955 25.492607,21.7074151 24.913698,21.1437257 C24.334789,20.5800363 24.0057279,19.8079904 24,19 L24,11 C24,10.4477153 24.4477153,10 25,10 L49,10 C49.5522847,10 50,10.4477153 50,11 L50,35 C50,35.5522847 49.5522847,36 49,36 L41,36 C40.4477153,36 40,36.4477153 40,37 C41.5506217,38.1593474 42.292559,40.1096938 41.9045469,42.0065229 C41.5165348,43.9033521 40.0683233,45.4056853 38.187,45.863 C37.8002035,45.9536617 37.4042794,45.9996291 37.007,46 Z M26,34 L33,34 C34.6568542,34 36,35.3431458 36,37 L36,37.1 C35.995035,37.7011773 35.7014861,38.2633476 35.211,38.611 C34.4626919,39.1619894 34.0148308,40.0309944 34.0003095,40.9601572 C33.9857883,41.88932 34.4062752,42.7718958 35.137,43.346 C35.8683622,43.9290222 36.8297995,44.1375801 37.737,43.91 C38.8069076,43.6526862 39.6453231,42.822362 39.913,41.755 C40.2106375,40.579587 39.7714577,39.3405713 38.8,38.615 C38.3038253,38.2597163 38.0066929,37.6892221 38,37.079 C37.9847459,36.2714867 38.2933665,35.491468 38.8569971,34.9129951 C39.4206277,34.3345222 40.192363,34.0057356 41,34 L48,34 L48,12 L26,12 L26,19 C26,19.5522847 26.4477153,20 27,20 C28.1592053,18.4487531 30.1099242,17.7063679 32.0071691,18.0944212 C33.904414,18.4824746 35.4069782,19.9311778 35.864,21.813 C36.223352,23.3138233 35.8742968,24.8965508 34.917,26.107 C33.958823,27.3199726 32.4912621,28.018649 30.945634,27.997688 C29.4000058,27.976727 27.9519313,27.2385103 27.027,26 L27,26 C26.4477153,26 26,26.4477153 26,27 L26,34 Z"
                  id="Shape" fill="#000000"/>
            <path d="M25,36 L17,36 C15.3431458,36 14,34.6568542 14,33 L14,32.894 C14.0050061,32.2918411 14.2998373,31.7289816 14.792,31.382 C15.5534037,30.8277044 16.0026826,29.9417919 16,29 C15.9998419,28.0746288 15.5734857,27.2009021 14.8441581,26.6313469 C14.1148306,26.0617917 13.1638236,25.8598915 12.266,26.084 C11.1959427,26.3400373 10.3574067,27.1704771 10.091,28.238 C9.79137206,29.4151875 10.2311954,30.656879 11.205,31.383 C11.6993151,31.7397806 11.9944643,32.3104025 12,32.92 C12.0155248,33.7276848 11.7070242,34.5079625 11.1433642,35.0866534 C10.5797042,35.6653444 9.80781368,35.9942682 9,36 L1,36 C0.44771525,36 6.76353751e-17,35.5522847 0,35 L0,11 C-6.76353751e-17,10.4477153 0.44771525,10 1,10 L25,10 C25.5522847,10 26,10.4477153 26,11 L26,19 C26,19.5522847 26.4477153,20 27,20 C28.2856794,18.2627645 30.5395489,17.5443639 32.5934021,18.2171533 C34.6472554,18.8899428 36.039247,20.8026336 36.0478919,22.9638564 C36.0565368,25.1250792 34.679891,27.0488446 32.6314857,27.7380431 C30.5830804,28.4272416 28.323536,27.7268946 27.024,26 L27,26 C26.4477153,26 26,26.4477153 26,27 L26,35 C26,35.5522847 25.5522847,36 25,36 Z M16,32.976 L16,33 C16,33.5522847 16.4477153,34 17,34 L24,34 L24,27 C24,25.3431458 25.3431458,24 27,24 L27.106,24 C27.7072357,24.0056871 28.2692314,24.2995168 28.617,24.79 C29.1709632,25.5525742 30.057457,26.0027032 31,26 C31.9253712,25.9998419 32.7990979,25.5734857 33.3686531,24.8441581 C33.9382083,24.1148306 34.1401085,23.1638236 33.916,22.266 C33.6585643,21.196364 32.8282123,20.3583057 31.761,20.091 C30.5848436,19.7902825 29.3433843,20.2280499 28.616,21.2 C28.2607163,21.6961747 27.6902221,21.9933071 27.08,22 C26.2723152,22.0155248 25.4920375,21.7070242 24.9133466,21.1433642 C24.3346556,20.5797042 24.0057318,19.8078137 24,19 L24,12 L2,12 L2,34 L9,34 C9.55228475,34 10,33.5522847 10,33 C8.38629365,31.7869433 7.65624778,29.7252433 8.147,27.767 C8.59590431,25.9677199 10.0093776,24.5681268 11.813,24.137 C14.1170324,23.5679905 16.5030504,24.7004689 17.5190291,26.845259 C18.5350078,28.990049 17.8998147,31.5536634 16,32.976 Z"
                  id="Shape" fill="#000000"/>
            <path d="M59,50 C58.4477153,50 58,49.5522847 58,49 L58,2 L11,2 C10.4477153,2 10,1.55228475 10,1 C10,0.44771525 10.4477153,1.01453063e-16 11,0 L59,0 C59.5522847,3.38176876e-17 60,0.44771525 60,1 L60,49 C60,49.5522847 59.5522847,50 59,50 Z"
                  id="Shape" fill="#000000"/>
            <path d="M11,33.96 C10.7390002,33.9691961 10.4853979,33.872322 10.2969992,33.6914592 C10.1086004,33.5105964 10.0014602,33.2611577 10,33 L10,32.92 C10,32.3677153 10.4477153,31.92 11,31.92 C11.5522847,31.92 12,32.3677153 12,32.92 C12.0035544,33.4803695 11.5600781,33.9415848 11,33.96 Z"
                  id="Shape" fill="#000000"/>
            <path d="M23,50 L22.92,50 C22.3677153,50 21.92,49.5522847 21.92,49 C21.92,48.4477153 22.3677153,48 22.92,48 C23.4803695,47.9964456 23.9415848,48.4399219 23.96,49 C23.9691961,49.2609998 23.872322,49.5146021 23.6914592,49.7030008 C23.5105964,49.8913996 23.2611577,49.9985398 23,50 Z"
                  id="Shape" fill="#000000"/>
            <path d="M1,12 C0.595604102,11.9999137 0.23106595,11.7562725 0.0763220219,11.3826546 C-0.078421906,11.0090366 0.00709208442,10.5789943 0.293,10.293 L10.293,0.293 C10.6853789,-0.0859722095 11.3090848,-0.0805523739 11.6948186,0.305181425 C12.0805524,0.690915223 12.0859722,1.31462111 11.707,1.707 L1.707,11.707 C1.51950727,11.8945494 1.26519481,11.9999434 1,12 Z"
                  id="Shape" fill="#000000"/>
            <path d="M49,12 C48.5956041,11.9999137 48.2310659,11.7562725 48.076322,11.3826546 C47.9215781,11.0090366 48.0070921,10.5789943 48.293,10.293 L58.293,0.293 C58.6853789,-0.0859722095 59.3090848,-0.0805523739 59.6948186,0.305181425 C60.0805524,0.690915223 60.0859722,1.31462111 59.707,1.707 L49.707,11.707 C49.5195073,11.8945494 49.2651948,11.9999434 49,12 Z"
                  id="Shape" fill="#000000"/>
            <path d="M49,60 C48.5956041,59.9999137 48.2310659,59.7562725 48.076322,59.3826546 C47.9215781,59.0090366 48.0070921,58.5789943 48.293,58.293 L58.293,48.293 C58.6853789,47.9140278 59.3090848,47.9194476 59.6948186,48.3051814 C60.0805524,48.6909152 60.0859722,49.3146211 59.707,49.707 L49.707,59.707 C49.5195073,59.8945494 49.2651948,59.9999434 49,60 Z"
                  id="Shape" fill="#000000"/>
        </g>
    </g>
</svg>
