<svg xmlns="http://www.w3.org/2000/svg" viewBox="0 0 128 128">
    <radialGradient id="a" cx="100.725" cy="24.293" r="52.721" fx="140.169" fy="49.969"
                    gradientTransform="rotate(7.533 -232.534 -174.38)"
                    gradientUnits="userSpaceOnUse">
        <stop offset="0" stop-color="#d870a9"/>
        <stop offset="1" stop-color="#a11880"/>
    </radialGradient>
    <path fill="url(#a)"
          d="M63 89.2a63.9 63.9 0 0 1-17.8-13c-4.9-5.1-8.6-10.6-11-16.3-2.3-5.5-3.4-11.1-3.1-16.3.3-5 1.8-9.7 4.6-13.7 2.7-3.8 6.3-6.7 10.5-8.6 4-1.9 8.6-2.9 13.4-3.2 4.7-.2 9.6.3 14.6 1.5 4.9 1.2 9.9 3.1 14.8 5.8 4.9 2.7 9.2 5.9 13 9.4 3.8 3.5 7.1 7.5 9.7 11.6 2.7 4.2 4.7 8.7 5.8 13.1 1.2 4.6 1.5 9.3.7 13.9-.9 4.7-2.9 8.9-5.8 12.2-3.1 3.5-7.2 6.2-12 7.8-5 1.7-10.9 2.4-17.2 1.7-6.6-.5-13.4-2.5-20.2-5.9zm27.3-63.9c-5.9-3.2-11.9-5.6-17.9-7.1-6.1-1.5-12.2-2.2-17.9-1.9-6 .3-11.8 1.5-16.9 3.8-5.4 2.4-10.2 6-13.9 10.8-3.9 5.1-6.2 11.1-6.9 17.6-.8 6.9.2 14.2 3 21.6 2.9 7.6 7.5 15.1 13.8 21.8 6.4 6.8 14.3 12.8 23.3 17.1 8.9 4.3 17.9 6.6 26.4 7.1 8.2.5 15.7-.8 22.1-3.5 6.1-2.6 11.1-6.4 14.8-11.3 3.5-4.6 5.8-10.2 6.6-16.4.8-5.9.2-11.9-1.4-17.8a61.2 61.2 0 0 0-7.4-16.3c-3.2-5.1-7.3-9.8-11.9-14.2-4.7-4.2-10-8.1-15.8-11.3z"/>
    <radialGradient id="b" cx="18.576" cy="110.168" r="52.718" fx="28.397" fy="134.941"
                    gradientTransform="rotate(-8.517 -243.84 -175.057)"
                    gradientUnits="userSpaceOnUse">
        <stop offset="0" stop-color="#fffad2"/>
        <stop offset=".117" stop-color="#fef3c0"/>
        <stop offset=".349" stop-color="#f3de92"/>
        <stop offset=".371" stop-color="#f2dc8e"/>
        <stop offset=".685" stop-color="#f0bf00"/>
        <stop offset="1" stop-color="#c9961a"/>
    </radialGradient>
    <path fill="url(#b)"
          d="M73.8 87c-6.3 4.3-13.1 7.4-20 9.3-6.8 1.7-13.5 2.3-19.6 1.6-6-.6-11.3-2.4-15.8-5.2-4.3-2.7-7.6-6.3-9.7-10.6-2-4.2-2.8-8.7-2.5-13.3.3-4.4 1.6-8.9 3.7-13.2 2-4.2 4.9-8.3 8.4-12 3.4-3.7 7.5-7.1 12.2-10.1 4.7-3 9.6-5.2 14.5-6.8 5-1.6 10-2.6 14.8-2.9 5-.3 9.8.1 14.3 1.3 4.6 1.2 8.9 3.2 12.5 6.1 3.7 3 6.4 6.8 7.9 11 1.6 4.4 1.9 9.3 1 14.3-.9 5.3-3.2 10.7-6.8 15.9C85 77.6 80 82.7 73.8 87zM31 32.2c-5.7 3.6-10.7 7.7-14.9 12.2C11.9 49 8.4 54 5.8 59.2c-2.7 5.4-4.3 11-4.8 16.7-.5 5.9.3 11.8 2.7 17.4 2.6 5.9 6.7 10.8 12 14.6 5.6 4 12.5 6.6 20.3 7.7 8 1.2 16.8.7 25.8-1.5 9.1-2.3 18.1-6.3 26.3-12.1 8.1-5.7 14.5-12.5 19-19.6 4.4-6.9 6.9-14.1 7.6-21 .7-6.6-.2-12.9-2.7-18.5-2.4-5.3-6.1-10-11.1-13.7-4.8-3.6-10.3-6-16.2-7.4-5.7-1.4-11.8-1.8-17.9-1.4-6 .4-12.1 1.6-18.2 3.6-6 1.9-11.9 4.6-17.6 8.2z"/>
    <radialGradient id="c" cx="44.661" cy="54.973" r="39.916" fx="37.063" fy="69.163"
                    gradientUnits="userSpaceOnUse">
        <stop offset="0" stop-color="#7caadb"/>
        <stop offset="0" stop-color="#6ea1d1"/>
        <stop offset="0" stop-color="#6099c6"/>
        <stop offset="0" stop-color="#5b96c2"/>
        <stop offset=".22" stop-color="#548fbc"/>
        <stop offset=".503" stop-color="#437eac"/>
        <stop offset=".819" stop-color="#286492"/>
        <stop offset="1" stop-color="#155381"/>
    </radialGradient>
    <path fill="url(#c)"
          d="M78.2 16.9c-6.3-2.4-12.6-4-18.7-4.7-6.2-.7-12.3-.5-18 .5-5.9 1.1-11.5 3.1-16.3 6-5 3.1-9.3 7.3-12.4 12.5C9.7 36.8 8.2 43 8.4 49.5c.2 6.9 2.2 14 5.9 20.9 3.8 7.2 9.5 14 16.6 19.8 2.5 2.1 10.7 7.9 10.7 7.9S60.5 96.6 74.7 87c-4.9-.4-10-1.4-15.1-3.2-7.2-2.5-13.8-6.2-19.3-10.6-5.5-4.4-9.9-9.4-13-14.7-3-5.2-4.8-10.5-5.2-15.7-.4-5 .5-9.8 2.8-14.1 2.2-4.1 5.4-7.5 9.2-9.9 3.7-2.4 8.1-4 12.8-4.9 4.6-.9 9.6-1 14.7-.4 5 .6 10.2 1.8 15.4 3.8 1.2.5 2.3 1 3.5 1.5l.5-.8c-.9-.4-1.8-.8-2.8-1.1z"/>
</svg>