<svg xmlns="http://www.w3.org/2000/svg" viewBox="0 0 128 128">
    <radialGradient id="a" cx="109.265" cy="34.478" r="30.395"
                    gradientTransform="rotate(6.832 -40.345 -109.888)"
                    gradientUnits="userSpaceOnUse">
        <stop offset="0" stop-color="#f8d1e0"/>
        <stop offset="1" stop-color="#a56c81"/>
    </radialGradient>
    <path fill="url(#a)"
          d="M84.7 19.4s-29.8 18.7 26.9 46.1c17.2 8.3-1.6 17.4-12.4 17.6-14.5.3-33.5-12.5-37-27.4 0 0-6.9-29.4 22.5-36.3z"/>
    <radialGradient id="b" cx="-253.991" cy="-221.646" r="30.493" fx="-253.462"
                    fy="-222.112" gradientTransform="rotate(-124.229 -42.906 -165.35)"
                    gradientUnits="userSpaceOnUse">
        <stop offset="0" stop-color="#fbc154"/>
        <stop offset=".164" stop-color="#f7b64c"/>
        <stop offset=".466" stop-color="#eb9937"/>
        <stop offset=".87" stop-color="#d8691f"/>
        <stop offset="1" stop-color="#d25917"/>
    </radialGradient>
    <path fill="url(#b)"
          d="M9.4 66.6s37.4 7.3 17-50.6c-6-17.2 13-11.2 20.7-3.3C57.6 23.4 60.7 47 51.5 59.8c0 0-17.6 24.5-42.1 6.8z"/>
    <radialGradient id="c" cx="202.118" cy="-381.983" r="30.699" fx="176.807"
                    fy="-364.612"
                    gradientTransform="scale(-1) rotate(-72.295 268.614 -67.27)"
                    gradientUnits="userSpaceOnUse">
        <stop offset="0" stop-color="#bcd471"/>
        <stop offset=".038" stop-color="#b4cd6a"/>
        <stop offset=".276" stop-color="#8ba744"/>
        <stop offset=".499" stop-color="#6d8a2c"/>
        <stop offset=".701" stop-color="#57751d"/>
        <stop offset=".875" stop-color="#4b6915"/>
        <stop offset="1" stop-color="#466511"/>
    </radialGradient>
    <path fill="url(#c)"
          d="M84.4 99.6s-18-31.4-50.3 17.7C23.9 132.8 16.2 112.9 18 102c2.3-14 20.5-30.8 35.1-31.3 0-.1 30.1-1.3 31.3 28.9z"/>
</svg>