<?xml version="1.0" encoding="iso-8859-1"?>
<!-- Generator: Adobe Illustrator 19.0.0, SVG Export Plug-In . SVG Version: 6.00 Build 0)  -->
<svg version="1.1" id="Capa_1" xmlns="http://www.w3.org/2000/svg"  x="0px" y="0px"
	 viewBox="0 0 508 508" style="enable-background:new 0 0 508 508;" xml:space="preserve">
<path style="fill:#FF7058;" d="M269.6,8.4L254,0l-15.6,8.4c-73.1,39.4-155,60-238.4,60v118.3C0,338.4,104.6,470.6,254,508l0,0l0,0
	c149.4-37.4,254-169.6,254-321.2V68.5C424.7,68.5,342.7,47.8,269.6,8.4z"/>
<path style="fill:#FFD15C;" d="M254,464.2c-125.2-36-211.7-148.6-211.7-277.4v-77.6c73.9-5.8,146.2-26.6,211.7-61.1
	c65.5,34.5,137.8,55.3,211.7,61.1v77.6C465.7,315.6,379.2,428.2,254,464.2z"/>
<polygon style="fill:#FFFFFF;" points="210.4,366.7 121.3,278 166.1,233 210.3,277 341.8,145.5 386.7,190.4 "/>
<g>
</g>
<g>
</g>
<g>
</g>
<g>
</g>
<g>
</g>
<g>
</g>
<g>
</g>
<g>
</g>
<g>
</g>
<g>
</g>
<g>
</g>
<g>
</g>
<g>
</g>
<g>
</g>
<g>
</g>
</svg>
