<?xml version="1.0" encoding="iso-8859-1"?>
<!-- Generator: Adobe Illustrator 19.0.0, SVG Export Plug-In . SVG Version: 6.00 Build 0)  -->
<svg version="1.1" id="Capa_1" xmlns="http://www.w3.org/2000/svg"  x="0px" y="0px"
	 viewBox="0 0 508 508" style="enable-background:new 0 0 508 508;" xml:space="preserve">
<polygon style="fill:#89D6F7;" points="106.3,116.8 0,221.5 177.7,221.5 106.4,116.8 "/>
<polygon style="fill:#55BFE9;" points="106.4,116.8 177.7,221.5 178.3,221.5 251.8,116.8 "/>
<polygon style="fill:#89D6F7;" points="508,221.5 401.7,116.8 329.2,221.5 "/>
<polygon style="fill:#F2F2F2;" points="254.9,116.8 251.8,116.8 178.3,221.5 328.5,221.5 "/>
<g>
	<polygon style="fill:#55BFE9;" points="329.2,221.5 401.7,116.8 401.7,116.8 254.9,116.8 328.5,221.5 	"/>
	<polygon style="fill:#55BFE9;" points="508,221.5 328.9,221.5 254,507.4 254,507.4 	"/>
	<polygon style="fill:#55BFE9;" points="0,221.5 253.2,506.6 178.5,221.5 	"/>
</g>
<polygon style="fill:#89D6F7;" points="178.5,221.5 253.2,506.6 254,507.4 328.9,221.5 "/>
<g>
	<rect x="246.1" y="0.6" style="fill:#FF7058;" width="15.9" height="54.8"/>
	
		<rect x="332.413" y="63.767" transform="matrix(-0.7072 0.7071 -0.7071 -0.7072 664.9681 -131.9767)" style="fill:#FF7058;" width="54.803" height="15.901"/>
	
		<rect x="120.846" y="63.807" transform="matrix(0.7072 0.7071 -0.7071 0.7072 94.1499 -83.8055)" style="fill:#FF7058;" width="54.803" height="15.901"/>
</g>
<g>
</g>
<g>
</g>
<g>
</g>
<g>
</g>
<g>
</g>
<g>
</g>
<g>
</g>
<g>
</g>
<g>
</g>
<g>
</g>
<g>
</g>
<g>
</g>
<g>
</g>
<g>
</g>
<g>
</g>
</svg>
